<?xml version="1.0" encoding="utf-8"?>
<!-- Generator: Adobe Illustrator 16.0.3, SVG Export Plug-In . SVG Version: 6.00 Build 0)  -->
<!DOCTYPE svg PUBLIC "-//W3C//DTD SVG 1.1//EN" "http://www.w3.org/Graphics/SVG/1.1/DTD/svg11.dtd">
<svg version="1.1" id="Ebene_1" xmlns="http://www.w3.org/2000/svg" xmlns:xlink="http://www.w3.org/1999/xlink" x="0px" y="0px"
	 width="238.11px" height="95.612px" viewBox="0 0 238.11 95.612" enable-background="new 0 0 238.11 95.612" xml:space="preserve">
<g>
	<path fill="#E31519" d="M103.914,61.989c0.102,6.016,16.251,4.656,16.084-1.355c-0.252-9.42-0.309-18.096-0.264-25.588l5.116,0.027
		c0.34,6.788,1.133,20.411,2.311,27.476c0.854,5.119,16.055,1.61,15.27-3.442l-0.652-8.047c1.674,3.387,3.959,6.375,6.688,8.693
		c4.461,3.787,10.047,5.608,16.232,5.608c6.863,0,13.104-1.922,17.748-6.485c2.797-2.748,5.387-6.161,7.146-9.986
		c0.422,7.304,0.746,12.827,0.746,12.827c0.248,4.291,15.936,1.308,15.615-3.172c-0.479-6.725-0.463-13.224-0.717-18.445
		c9.092,9.092,20.195,19.612,24.238,21.036c2.668,0.938,9.016-0.704,8.617-4.625c-2.051-32.242-1.539-47.067-1.539-47.067
		c0.02-3.891-15.627-1.996-15.688,1.87c-0.117,7.06,0,14.152,0.182,20.207c-10.668-9.78-21.203-21.699-21.203-21.699
		c-3.688-2.882-12.293,0.996-12.186,3.778c-0.01,0.594,0.26,5.72,0.631,12.42c-1.656-3.013-3.74-5.715-5.955-7.865
		c-4.633-4.497-10.496-6.428-17.307-6.428c-6.688,0-12.301,3.185-16.904,7.536c-3.158,2.989-5.898,6.299-7.592,10.196l-0.607-8.32
		l-19.981,0.33c0.213-8.749,0.506-13.942,0.506-13.942c0.08-5.361-15.139-3.913-15.636,1.534c-0.378,4.122-0.651,8.406-0.847,12.672
		l-6.704,0.111c-4.852,0.091-5.778,13.17-0.928,13.076l7.254,0.039c-0.065,4.797-0.055,9.295-0.012,13.195
		c0.014,0.499,0.039,1.498,0.07,2.738c-6.61-5.439-13.046-11.57-18.55-18.007c5.127-6.447,9.041-11.751,14.445-17.961
		c2.611-3.002-8.889-11.24-12.077-7.579c-4.759,5.472-8.825,10.89-13.378,16.541c-0.323-10.051-0.319-17.976-0.319-17.976
		C73.569,1.3,58.902,3.63,58.917,8.334c0.047,13.037,0.694,26.767,1.294,36.854L42.205,6.308C40.457,2.677,29.87,3.772,26.794,8.722
		c0,0-14.524,24.944-26.401,47.839c-2.898,5.588,11.103,10.354,14.282,5.03l3.213-6.07l28.717-3.779l4.851,10.394
		c1.325,2.838,7.019,2.184,10.879,0.186c3.477,2.39,14.219,0.104,13.842-4.196c-0.4-4.533-0.727-8.972-1.004-13.244
		c6.215,7.311,13.208,13.885,20.832,19.933c1.685,1.338,5.325-1.545,7.865-4.862C103.894,61.003,103.911,61.761,103.914,61.989z
		 M157.247,37.766c0.184-3.77,2.348-6.639,6.404-7.727c6.031-1.619,8.967,1.373,9.668,5.283c0.482,2.7-0.553,6.166-1.721,8.641
		c-1.33,2.817-6.721,5.563-11.412,1.994C157.653,44.028,157.093,40.875,157.247,37.766z M25.655,40.86L32.7,27.557
		c0.943-1.464,1.874-1.596,2.609-0.016l5.223,11.187L25.655,40.86z"/>
	<path fill="#E31519" d="M126.747,16.143c5.17,3.522,11.111,0.814,12.578-1.966c1.289-2.442,2.428-5.861,1.896-8.524
		c-0.771-3.855-4.008-6.807-10.658-5.21c-4.471,1.073-6.857,3.9-7.061,7.62C123.337,11.13,123.952,14.241,126.747,16.143z"/>
	<path fill="#E31519" d="M230.561,71.095c0.066,2.568,0.086,5.142,0.111,7.716c-2.162-0.065-4.334-0.104-6.505-0.095
		c-0.063-3.026-0.054-6.053,0.028-9.039c0.052-1.899-5.854-0.189-5.898,1.452c-0.072,2.569-0.099,5.167-0.065,7.767
		c-0.324,0.019-0.646,0.032-0.973,0.055c-1.45,0.1-2.121,1.009-1.121,2.282c0.511,0.654,1.312,1.287,2.191,1.735
		c0.1,2.912,0.269,5.816,0.524,8.684c0.114,1.328,6.072-0.165,5.896-2.125c-0.181-2.017-0.315-4.054-0.413-6.096
		c2.131-0.071,4.271-0.079,6.407-0.051c0.062,2.621,0.165,5.239,0.371,7.849c0.211,2.643,7.136-0.469,6.945-2.806
		c-0.535-6.687-0.385-13.428-0.552-20.131C237.441,65.721,230.5,68.715,230.561,71.095z"/>
	<path fill="#E31519" d="M212.31,86.041c-1.848,1.696-2.921,1.917-4.754,1.969c-2.077,0.055-3.35-1.788-3.498-3.003
		c-0.476-3.86,1.066-6.674,3.781-9.391c1.226-1.222,3.618-2.78,7.716-2.121c1.593,0.254,1.955-0.84,1.388-1.621
		c-1.308-1.796-3.015-3.093-5.065-3.939c-2.366-0.977-5.03-0.169-7.101,1.103c-4.673,2.868-6.731,8.045-6.406,13.371
		c0.297,4.813,3.526,9.473,8.356,10.658c3.647,0.897,8.049,0.447,10.915-2.186C219.195,89.453,214.032,84.457,212.31,86.041z"/>
	<path fill="#E31519" d="M190.979,80.174c-1.932-0.895-3.79-1.079-5.862-1.481c-1.221-0.235-1.622-1.385-0.315-2.495
		c1.338-1.139,2.983-1.775,4.704-2.038c0.366-0.055,0.684-0.032,1.047-0.004c0.002,0.002,0.489,0.106,0.601,0.117
		c0.906,0.522,2.844,0.919,2.486-0.752c-0.39-1.825-2.146-3.207-3.619-4.146c-4.575-2.931-12.633-0.019-13.786,5.478
		c-0.592,2.816,2.101,5.545,4.066,7.064c1.947,1.513,4.856,2.156,7.201,2.746c2.481,0.622,3.347,1.476,2.34,2.283
		c-0.908,0.73-3.394,1.028-4.35,1.154c-1.232,0.167-2.41,0.206-3.641,0.009c-0.343-0.054-0.589-0.144-0.915-0.253
		c-0.019-0.007-0.594-0.242-0.652-0.266c-0.479-0.183-3.078-1.924-3.338-0.285c-0.249,1.567,1.704,3.428,2.83,4.188
		c4.376,2.942,10.384,3.651,15.206,1.261c2.256-1.117,3.448-3.204,2.731-5.728C196.798,83.795,193.896,81.522,190.979,80.174z"/>
	<path fill="#E31519" d="M172.763,68.454c-1.393,0.596-3.099,1.943-3.418,3.521c-0.639,3.178-0.592,6.586-0.737,9.813
		c-0.042,0.938-0.084,1.875-0.122,2.814c-1.646-1.603-3.154-3.365-4.589-5.062c-1.735-2.055-4.122-5.053-5.715-7.324
		c0.004-0.043,0.004-0.084,0.004-0.124c0.01-0.242,0.02-0.486,0.03-0.728c0.01-0.134,0.077-0.89,0.01-0.262
		c0.154-1.4-1.3-0.883-2.117-0.411c-1.113,0.635-3.003,2.074-3.154,3.439c-0.344,3.108-0.226,6.286-0.237,9.407
		c-0.01,3.604-0.076,7.248,0.229,10.844c0.112,1.298,2.498-0.22,2.858-0.486c0.963-0.704,2.616-2.109,2.503-3.431
		c-0.195-2.256-0.232-4.537-0.237-6.813c0.094,0.113,0.186,0.228,0.279,0.336c3.02,3.604,6.401,7.325,10.572,9.596
		c1.025,0.557,2.724-0.595,3.45-1.181c0.938-0.749,1.93-1.836,1.899-3.112c-0.082-3.437,0.072-6.885,0.214-10.316
		c0.129-3.129,0.096-6.429,0.715-9.511C175.524,67.866,173.717,68.047,172.763,68.454z"/>
	<path fill="#E31519" d="M149.989,69.873c-3.97,0.092-7.98,0.703-11.871,1.482c-2.041,0.411-4.626,1.715-5.504,3.741
		c-0.535,1.229,0.164,1.827,1.103,2.048c-0.61,5.194-0.889,10.829,1.5,15.572c0.267,0.533,0.617,1.14,1.097,1.52
		c1.557,1.232,3.594,0.879,5.412,0.546c2.033-0.371,4.938-0.76,6.975-1.117c1.097-0.192,2.542-0.93,2.256-2.636
		c-0.286-1.697-1.819-1.458-2.913-1.267c-2.499,0.434-4.667,0.776-6.134,1.004c-0.121-0.206-0.615-1.332-0.77-1.83
		c-0.313-0.987-0.53-2.007-0.681-3.042c0.105-0.014,0.204-0.027,0.289-0.045c2.398-0.437,4.8-0.869,7.201-1.286
		c1.237-0.215,2.856-1.04,2.542-2.925c-0.312-1.869-2.038-1.68-3.272-1.464c-2.345,0.409-4.686,0.828-7.025,1.255
		c0.021-1.712,0.169-3.421,0.357-5.08c1.964-0.25,3.917-0.419,5.72-0.456c2.226-0.049,3.863-1.294,5.216-3.072
		C152.66,71.272,151.939,69.834,149.989,69.873z"/>
	<path fill="#E31519" d="M124.594,70.676c-0.075,0.006-0.146,0.008-0.221,0.024c-1.381,0.307-1.408,0.98-2.047,2.264
		c-1.932,3.895-3.521,7.382-4.856,11.063c-2.136-3.609-4.059-8.337-5.429-12.373c-0.005-0.013-0.012-0.02-0.019-0.03
		c0.04-0.374-0.031-0.688-0.275-0.905c-0.425-0.369-6.58,0.477-6.908,3.122c0,0-1.599,13.141-1.509,20.011
		c0.019,1.421,5.729,2.525,5.708,1.091c-0.058-4.492,0.188-8.947,0.7-13.384c1.69,3.855,3.371,7.273,5.437,11.007
		c0.756,1.366,4.46-0.104,4.897-1.796c1.047-4.048,2.238-7.062,3.703-10.188c0.35,4.591,0.896,9.601,1.521,13.492
		c0.237,1.501,6.915,1.693,6.681,0.239c-1.049-6.554-1.686-13.239-1.866-19.876C130.03,71.489,126.519,70.353,124.594,70.676z"/>
</g>
</svg>
